# xmcd CD database file
#
# Track frame offsets:
#	150
#	17775
#	41925
#	62625
#	82500
#	108150
#	127125
#	148275
#	163950
#	197100
#	229800
#
# Disc length: 3360 seconds
#
# Revision: 1
# Processed by: cddbd v1.5.1PL2 Copyright (c) Steve Scherf et al.
# Submitted via: freeDBTagger 0.8.2.1
#
DISCID=9b0d1e0b
DTITLE=B'z - Flash Back-B'z Early Special Titles- [CD2]
DYEAR=1997
DGENRE=rock
TTITLE0=OH!GIRL
TTITLE1=夜にふられても
TTITLE2=LOVING ALL NIGHT
TTITLE3=Nothing To Change
TTITLE4=BREAK THROUGH
TTITLE5=NEVER LET YOU GO
TTITLE6=君を今抱きたい
TTITLE7=STARDUST TRAIN
TTITLE8=SAVE ME!?
TTITLE9=BAD COMMUNICATION
TTITLE10=ROSY
EXTD=
EXTT0=
EXTT1=
EXTT2=
EXTT3=
EXTT4=
EXTT5=
EXTT6=
EXTT7=
EXTT8=
EXTT9=
EXTT10=
PLAYORDER=
